<?xml version="1.0" encoding="UTF-8" standalone="no"?>
<!-- Created with Inkscape (http://www.inkscape.org/) -->

<svg
   width="333.22485mm"
   height="106.78182mm"
   viewBox="0 0 333.22487 106.78182"
   version="1.1"
   id="svg289"
   sodipodi:docname="sacloud_autoscaler.svg"
   xmlns:inkscape="http://www.inkscape.org/namespaces/inkscape"
   xmlns:sodipodi="http://sodipodi.sourceforge.net/DTD/sodipodi-0.dtd"
   xmlns="http://www.w3.org/2000/svg"
   xmlns:svg="http://www.w3.org/2000/svg"
   xmlns:rdf="http://www.w3.org/1999/02/22-rdf-syntax-ns#"
   xmlns:cc="http://creativecommons.org/ns#"
   xmlns:dc="http://purl.org/dc/elements/1.1/">
  <title
     id="title4531">sacloud-autoscaler.logo</title>
  <sodipodi:namedview
     id="namedview291"
     pagecolor="#ffffff"
     bordercolor="#666666"
     borderopacity="1.0"
     inkscape:pageshadow="2"
     inkscape:pageopacity="1"
     inkscape:pagecheckerboard="0"
     inkscape:document-units="px"
     showgrid="false"
     inkscape:snap-text-baseline="false"
     fit-margin-top="3"
     fit-margin-left="5"
     fit-margin-right="5"
     fit-margin-bottom="3"
     inkscape:zoom="0.67081229"
     inkscape:cx="544.86181"
     inkscape:cy="413.67757"
     inkscape:window-width="1680"
     inkscape:window-height="997"
     inkscape:window-x="0"
     inkscape:window-y="25"
     inkscape:window-maximized="0"
     inkscape:current-layer="layer1" />
  <defs
     id="defs286">
    <rect
       x="581.3847"
       y="372.6825"
       width="211.68365"
       height="96.897453"
       id="rect3574" />
    <rect
       x="135.65643"
       y="238.5168"
       width="802.01276"
       height="240.00752"
       id="rect2550" />
    <rect
       x="158.01738"
       y="263.85922"
       width="748.34644"
       height="169.94322"
       id="rect1371" />
    <rect
       x="71.555038"
       y="266.84067"
       width="912.32678"
       height="177.39687"
       id="rect845" />
  </defs>
  <g
     inkscape:label="レイヤー 1"
     inkscape:groupmode="layer"
     id="layer1"
     transform="translate(49.902999,-41.209759)">
    <text
       xml:space="preserve"
       transform="scale(0.26458333)"
       id="text843"
       style="font-style:normal;font-weight:normal;font-size:40px;line-height:1.25;font-family:sans-serif;white-space:pre;shape-inside:url(#rect845);fill:#000000;fill-opacity:1;stroke:none" />
    <text
       xml:space="preserve"
       transform="scale(0.26458333)"
       id="text1369"
       style="font-style:normal;font-weight:normal;font-size:40px;line-height:1.25;font-family:sans-serif;white-space:pre;shape-inside:url(#rect1371);fill:#000000;fill-opacity:1;stroke:none" />
    <text
       xml:space="preserve"
       transform="scale(0.26458333)"
       id="text2548"
       style="font-style:normal;font-weight:normal;font-size:40px;line-height:1.25;font-family:sans-serif;white-space:pre;shape-inside:url(#rect2550);fill:#000000;fill-opacity:1;stroke:none" />
    <g
       aria-label="AutoScaler"
       transform="scale(0.88035726,1.1359025)"
       id="text2732"
       style="font-size:50.8px;line-height:1.25;font-family:Coiny;-inkscape-font-specification:'Coiny, Normal';fill:#666666;stroke-width:2.19778">
      <path
         d="m 43.764033,78.796144 q -2.1844,0 -3.2512,1.27 -1.016,1.27 -1.016,4.5212 v 5.9944 h 8.4328 v -6.096 q 0,-2.1336 -0.508,-3.4036 -0.508,-1.3208 -1.4224,-1.778 -0.8636,-0.508 -2.2352,-0.508 z m 4.1656,18.796 h -8.4328 v 2.692396 q 0,2.5908 -1.3716,3.81 -1.3716,1.2192 -4.7244,1.2192 -1.4224,0 -2.3368,-0.4064 -0.9144,-0.4064 -1.6256,-1.3716 -0.6604,-0.9652 -1.016,-2.794 -0.3048,-1.879596 -0.508,-4.470396 -0.1524,-2.6416 -0.1524,-6.6548 0,-3.5052 0.7112,-6.4008 0.762,-2.9464 1.9812,-4.9784 1.27,-2.032 2.8448,-3.556 1.5748,-1.5748 3.4036,-2.4384 1.8796,-0.8636 3.6068,-1.27 1.778,-0.4572 3.556,-0.4572 2.1336,0 4.2164,0.6096 2.0828,0.5588 4.2164,1.9812 2.133599,1.4224 3.708399,3.556 1.6256,2.0828 2.6416,5.4356 1.016,3.3528 1.016,7.5184 0,6.7056 -0.508,9.9568 -0.4572,3.200396 -1.6256,4.470396 -1.1176,1.27 -3.5052,1.27 -3.352799,0 -4.724399,-1.2192 -1.3716,-1.2192 -1.3716,-3.81 z"
         id="path4421" />
      <path
         d="m 75.254476,94.594944 q 0,2.8956 2.2352,2.8956 0.762,0 1.3208,-0.4572 0.6096,-0.508 0.9144,-1.3716 0.3048,-0.8636 0.3048,-1.9812 v -6.8072 q 0,-1.7272 0.6096,-2.9972 0.6096,-1.3208 1.778,-2.032 1.1684,-0.7112 2.7432,-0.7112 2.7432,0 4.2672,1.2192 1.524,1.1684 1.524,4.3688 v 13.208 q 0,3.098796 -1.27,4.267196 -1.27,1.1684 -4.4704,1.1684 -1.3716,0 -2.3368,-0.254 -0.9652,-0.3048 -1.5748,-0.8636 -0.5588,-0.5588 -0.8636,-1.4732 -2.0828,1.3716 -4.4196,1.9304 -2.286,0.5588 -5.130799,0.5588 -3.6068,0 -5.1816,-2.794 -1.5748,-2.844796 -1.5748,-9.296396 0,-3.2004 0.1524,-5.1816 0.1524,-2.032 0.4572,-3.4544 0.3556,-1.4732 1.016,-2.1844 0.7112,-0.7112 1.6256,-1.016 0.9652,-0.3048 2.4892,-0.3048 2.844799,0 4.063999,1.0668 1.27,1.0668 1.27,3.2004 z"
         id="path4423" />
      <path
         d="m 97.923183,94.442544 v -5.9944 q -1.27,-0.0508 -2.032,-0.4064 -0.762,-0.4064 -1.1176,-1.016 -0.3048,-0.6096 -0.3048,-1.524 0,-2.8956 3.5052,-3.1496 v -4.7244 q 0,-1.9304 2.793997,-3.4544 2.794,-1.5748 5.5372,-1.5748 1.6764,0 2.1844,0.9652 0.508,0.9652 0.508,2.8956 l 0.0508,5.842 h 1.3716 q 2.794,0 3.81,0.762 1.0668,0.7112 1.0668,2.6416 0,0.8128 -0.3048,1.3716 -0.3048,0.5588 -1.016,0.8636 -0.6604,0.3048 -1.6256,0.4572 -0.9652,0.1016 -2.3876,0.1016 h -0.9144 v 5.588 q 0,0.8128 0.0508,1.3716 0.1016,0.508 0.254,0.8128 0.1524,0.3048 0.4064,0.4064 0.3048,0.1016 0.7112,0.1016 0.6096,0 1.016,-0.4064 0.4064,-0.4572 0.6096,-0.9652 0.254,-0.5588 0.6096,-0.9652 0.4064,-0.4572 0.9144,-0.4572 1.1684,0 1.778,0.5588 0.6604,0.5588 0.6604,1.3716 0,1.3716 -0.5588,2.9464 -0.508,1.574796 -1.524,3.047996 -1.016,1.4732 -2.8448,2.4384 -1.778,0.9652 -4.0132,0.9652 -5.0292,0 -7.112,-2.54 -2.082797,-2.54 -2.082797,-8.331196 z"
         id="path4425" />
      <path
         d="m 136.29862,93.274144 q 0,-2.6416 -0.6604,-4.6228 -0.6604,-2.032 -1.9304,-2.032 -0.8636,0 -1.524,1.016 -0.6604,1.016 -0.9652,2.4892 -0.3048,1.4732 -0.3048,3.1496 0,2.5908 0.7112,4.572 0.7112,1.9304 2.032,1.9304 1.3208,0 1.9812,-1.9304 0.6604,-1.9304 0.6604,-4.572 z m -2.6416,12.395196 q -3.9624,0 -7.1628,-1.4224 -3.1496,-1.4224 -5.08,-4.267196 -1.8796,-2.8448 -1.8796,-6.6548 0,-5.7912 3.9624,-9.1948 3.9624,-3.4036 10.16,-3.4036 6.1976,0 10.1092,3.4036 3.9116,3.4036 3.9116,9.1948 0,5.7404 -4.0132,9.042396 -3.9624,3.302 -10.0076,3.302 z"
         id="path4427" />
      <path
         d="m 166.97467,70.160144 q 6.0452,0 10.3124,2.4892 4.2672,2.4892 4.2672,5.2832 0,0.762 -0.3556,1.3208 -0.3048,0.508 -0.8128,0.762 -0.4572,0.2032 -1.016,0.2032 -0.9144,0 -2.7432,-0.9144 -1.8288,-0.9652 -4.064,-1.8796 -2.2352,-0.9652 -4.1148,-0.9652 -2.9972,0 -2.9972,2.4384 0,0.762 0.4572,1.4732 0.508,0.6604 1.5748,1.4224 1.0668,0.7112 2.0828,1.27 1.016,0.5588 2.794,1.524 1.778,0.9144 2.9972,1.6256 3.9116,2.2352 5.4864,4.2672 1.5748,2.032 1.5748,4.6736 0,10.515596 -14.1732,10.515596 -2.794,0 -5.4356,-0.5588 -2.5908,-0.5588 -4.572,-1.4732 -1.9304,-0.9144 -3.4544,-2.032 -1.4732,-1.1176 -2.2352,-2.285996 -0.762,-1.1684 -0.762,-2.1844 0,-1.1176 0.7112,-1.8796 0.762,-0.8128 2.1844,-0.8128 1.0668,0 5.1308,1.3716 4.064,1.3208 6.5532,1.3208 2.286,0 2.286,-1.5748 0,-0.4572 -0.2032,-0.8128 -0.1524,-0.4064 -0.6096,-0.762 -0.4064,-0.4064 -0.9652,-0.7112 -0.508,-0.3556 -1.4732,-0.8636 -0.9144,-0.508 -1.8796,-1.016 -0.9144,-0.508 -2.4384,-1.3208 -1.524,-0.8128 -2.9464,-1.6256 -1.8796,-1.0668 -3.2512,-2.6416 -1.3208,-1.5748 -1.9304,-3.0988 -0.6096,-1.5748 -0.6096,-2.8956 0,-4.2672 3.81,-6.9596 3.81,-2.6924 10.8204,-2.6924 z"
         id="path4429" />
      <path
         d="m 201.70123,86.314544 q 0,-1.1684 -1.3208,-1.1684 -0.9652,0 -1.7272,1.0668 -0.762,1.0668 -1.1684,2.6924 -0.4064,1.5748 -0.4064,3.302 0,2.54 1.524,4.1148 1.5748,1.5748 4.2164,1.5748 2.5908,0 4.4704,-0.6096 0.762,-0.2032 1.8288,-0.762 1.1176,-0.5588 1.5748,-0.5588 0.7112,0 1.1684,0.254 0.4572,0.254 0.6096,0.6096 0.2032,0.3556 0.2032,0.762 0,0.7112 -0.508,1.7272 -0.4572,1.015996 -1.4732,2.133596 -1.016,1.1176 -2.3876,2.0828 -1.3208,0.9144 -3.302,1.524 -1.9812,0.6096 -4.1656,0.6096 -6.2992,0 -10.3632,-3.3528 -4.064,-3.403596 -4.064,-9.296396 0,-3.7592 1.8288,-6.5532 1.8796,-2.8448 5.1308,-4.2672 3.2512,-1.4732 7.4676,-1.4732 4.0132,0 6.604,0.9652 2.6416,0.9144 3.7592,2.4892 1.1176,1.5748 1.1176,3.7592 0,0.9652 -0.4064,1.9812 -0.3556,1.016 -1.1684,2.032 -0.762,1.016 -2.286,1.6764 -1.524,0.6096 -3.556,0.6096 -0.9144,0 -1.524,-0.1016 -0.5588,-0.1016 -1.2192,-0.4064 -0.6096,-0.3556 -0.9144,-1.1176 -0.3048,-0.762 -0.3048,-1.9304 0,-1.016 0.3556,-2.4384 0.4064,-1.4732 0.4064,-1.9304 z"
         id="path4431" />
      <path
         d="m 226.21779,105.61854 q -4.0132,0 -6.6548,-3.2512 -2.6416,-3.301996 -2.6416,-8.991596 0,-5.7912 2.5908,-9.1948 2.6416,-3.4544 6.7056,-3.4544 4.1148,0 7.62,2.8956 1.3716,-2.54 4.4196,-2.54 2.7432,0 4.2672,1.2192 1.524,1.1684 1.524,4.3688 v 13.208 q 0,3.047996 -1.27,4.267196 -1.27,1.1684 -4.4704,1.1684 -3.3528,0 -4.4196,-1.8796 -3.2512,2.1844 -7.6708,2.1844 z m 6.9088,-17.119596 q -0.8636,-1.4732 -2.2352,-1.4732 -1.3208,0 -2.1336,1.9304 -0.8128,1.9304 -0.8128,4.4196 0,2.3368 0.762,4.1656 0.762,1.8288 2.1336,1.8288 1.4224,0 2.286,-1.3716 z"
         id="path4433" />
      <path
         d="m 259.95136,97.642944 q 0,4.114796 -1.3716,5.892796 -1.3716,1.778 -4.2164,1.778 -2.8448,0 -4.1656,-1.5748 -1.3208,-1.6256 -1.3208,-5.689596 l -0.1016,-21.4376 q 0,-1.3208 0.254,-2.3368 0.3048,-1.016 0.762,-1.7272 0.508,-0.7112 1.2192,-1.1684 0.7112,-0.4572 1.524,-0.6604 0.8636,-0.2032 1.8288,-0.2032 2.794,0 4.1656,1.1176 1.4224,1.1176 1.4224,4.5212 z"
         id="path4435" />
      <path
         d="m 278.62036,105.61854 q -6.1976,0 -10.2616,-3.2004 -4.0132,-3.200396 -4.0132,-8.737596 0,-5.9944 3.9624,-9.4488 4.0132,-3.5052 10.3124,-3.5052 5.9436,0 8.6868,2.1336 2.794,2.0828 2.794,5.7404 0,0.7112 -0.2032,1.3716 -0.1524,0.6604 -0.5588,1.3208 -0.3556,0.6096 -1.016,1.1684 -0.6096,0.508 -1.4224,0.9652 -0.8128,0.4064 -1.9304,0.6604 -1.1176,0.2032 -2.3876,0.2032 l -7.1628,0.0508 q 0.508,1.6256 1.8288,2.5908 1.3208,0.9144 3.3528,0.9144 2.1844,0 4.4704,-0.5588 0.9652,-0.254 2.0828,-0.8128 1.1684,-0.5588 1.6764,-0.5588 0.8636,0 1.3208,0.508 0.508,0.508 0.508,1.27 0,0.9144 -0.8128,2.2352 -0.8128,1.269996 -2.286,2.590796 -1.4224,1.27 -3.81,2.1844 -2.3876,0.9144 -5.1308,0.9144 z m -3.4544,-14.528796 q 3.5052,-0.0508 3.81,-0.0508 0.762,0 1.1176,-0.9144 0.254,-0.6604 0.254,-1.8288 0,-3.2004 -1.9304,-3.2004 -0.7112,0 -1.4224,0.762 -0.6604,0.762 -1.1684,2.1844 -0.508,1.3716 -0.6604,3.048 z"
         id="path4437" />
      <path
         d="m 305.83408,99.878144 q 0,3.047996 -1.27,4.267196 -1.27,1.1684 -4.5212,1.1684 -2.9972,0 -4.064,-1.3716 -1.0668,-1.4224 -1.0668,-4.622796 v -12.4968 q 0,-1.7272 0.6096,-2.9972 0.6096,-1.3208 1.778,-2.032 1.1684,-0.7112 2.7432,-0.7112 3.8608,0 5.08,2.2352 2.9464,-2.2352 5.6896,-2.2352 5.334,0 5.334,5.08 0,2.032 -1.1684,3.302 -1.1684,1.27 -3.048,1.27 -1.1176,0 -1.8288,-0.4572 -0.6604,-0.4572 -1.27,-0.9144 -0.5588,-0.4572 -1.3208,-0.4572 -1.1176,0 -1.6764,0.762 z"
         id="path4439" />
    </g>
    <text
       xml:space="preserve"
       transform="scale(0.26458333)"
       id="text3572"
       style="font-style:normal;font-weight:normal;font-size:40px;line-height:1.25;font-family:sans-serif;white-space:pre;shape-inside:url(#rect3574);fill:#000000;fill-opacity:1;stroke:none" />
    <g
       id="g317"
       transform="matrix(0.2331723,0,0,0.2331723,-74.078951,30.915755)">
      <g
         id="うさぎのコピー">
        <g
           id="g269">
          <path
             d="m 236.41,183.69 c -4.63,1.29 -38.47,11.34 -51.5,44.25 -2.15,5.44 -13.95,35.24 3.75,58.5 11.66,15.33 29.31,18.87 34.75,19.75 -9.79,4.94 -39.72,21.64 -52.25,56.5 -4.4,12.26 -12.69,35.33 -0.25,57 13.22,23 40,27.38 44.25,28 a 54.4,54.4 0 0 0 20,21 c 0.14,0.08 1.57,0.92 3.25,1.75 16.66,8.24 38.66,6.38 40,6.25 27.54,-2.58 47.8,-20 53,-24.75 4.79,13.61 18,21.92 31,20.25 15.77,-2 27.56,-18.3 24.25,-33 a 26.63,26.63 0 0 0 -22.5,-20 67.88,67.88 0 0 0 -14.5,0 c 2.83,-5.83 7,-24 7.5,-40.33 0.33,-10.5 -2.83,-25.67 -13,-41.17 -18.72,-28.53 -54.75,-33.5 -66.25,-32.75 9.75,-7.37 30.63,-25.5 35.25,-49.75 4.86,-25.47 -12.87,-44.2 -16.5,-48.5 23.9,-24.73 37.55,-41.76 47.37,-59.21 7.78,-13.83 16.83,-27.67 19.63,-47.29 2,-14 2.64,-23.92 -5.25,-28.75 C 347.3,64.63 323,84 319.66,86.69 a 90.42,90.42 0 0 0 -8.5,7.75 c 0.52,-3.56 3.2,-23.5 -7.25,-32.25 a 12.8,12.8 0 0 0 -4.25,-2.5 c -9.45,-3.21 -20.37,6.55 -24.5,10.25 -5.21,4.66 -22.54,21.8 -34.75,88.25 -1.98,10.81 -3.25,19.7 -4,25.5 z"
             style="fill:#ffffff;stroke:#ffffff;stroke-width:14.1732px;stroke-miterlimit:10"
             id="path253" />
          <path
             d="m 340.29,290.44 a 34.84,34.84 0 0 0 -7.87,9.38 32.56,32.56 0 0 0 -4.5,18.63 26.4,26.4 0 0 0 3.88,11.38 c 1.43,2.07 -0.95,-0.41 2,3.5 -0.75,-3 -4.8,-7 -9.75,-10.87 -3.31,-2.58 -9.93,-7.58 -19.62,-8.12 a 32.18,32.18 0 0 0 -15.75,3.25 l 3,4.75 -4.5,0.88 a 28.68,28.68 0 0 0 5.13,12.75 29.16,29.16 0 0 0 11.38,9.25 34.29,34.29 0 0 0 13.31,3.22 37.7,37.7 0 0 0 4.25,0 32,32 0 0 0 -9.12,4.5 33.12,33.12 0 0 0 -10.37,12.38 c -1.82,3.52 -3.75,7.38 -3.37,12.5 a 18.36,18.36 0 0 0 1,4.75 h 5.75 l 1.5,6.13 a 33.89,33.89 0 0 0 13.25,-3.25 35.1,35.1 0 0 0 14.11,-12.64 c 3.31,-5.17 5.21,-13.55 5.75,-16.87 -0.31,2.91 -0.45,13.19 3.75,21 1.74,3.23 5.25,10.5 13.63,14 a 27.65,27.65 0 0 0 6.88,1.88 l 2.13,-5.75 7.63,-0.25 c 2,-8.38 0.44,-14.11 -0.87,-16.75 -2.37,-4.75 -5.75,-8.37 -8.75,-11.62 -3.43,-3.72 -7,-6.57 -9.12,-8.62 5.24,1.26 13.73,1.55 22.63,-0.5 4.92,-1.13 11,-2.62 15.38,-8 a 19.76,19.76 0 0 0 3,-5.12 l -4.37,-2.75 3.13,-3.12 c -3.55,-2.71 -10.95,-7.43 -20.12,-6.87 -5.41,0.32 -10.3,2.41 -13.75,3.88 a 58.56,58.56 0 0 0 -9.5,5.13 38.93,38.93 0 0 0 -2.75,-42.5 c -1,1.71 -2.71,3.54 -3.75,5.25 -1.77,-1.59 -2.93,-3.23 -4.64,-4.79 z"
             style="fill:#ff9999;stroke:#ffffff;stroke-width:8.50394px;stroke-miterlimit:10"
             id="path255" />
          <g
             id="g267">
            <line
               x1="341.04001"
               y1="340.69"
               x2="342.04001"
               y2="317.44"
               style="fill:none;stroke:#ffffff;stroke-width:4.25197px;stroke-miterlimit:10"
               id="line257" />
            <line
               x1="319.29001"
               y1="334.81"
               x2="341.04001"
               y2="340.44"
               style="fill:none;stroke:#ffffff;stroke-width:4.25197px;stroke-miterlimit:10"
               id="line259" />
            <line
               x1="324.16"
               y1="359.56"
               x2="341.54001"
               y2="339.81"
               style="fill:none;stroke:#ffffff;stroke-width:4.25197px;stroke-miterlimit:10"
               id="line261" />
            <line
               x1="352.66"
               y1="361.31"
               x2="340.91"
               y2="340.06"
               style="fill:none;stroke:#ffffff;stroke-width:4.25197px;stroke-miterlimit:10"
               id="line263" />
            <line
               x1="363.66"
               y1="338.19"
               x2="342.04001"
               y2="340.56"
               style="fill:none;stroke:#ffffff;stroke-width:4.25197px;stroke-miterlimit:10"
               id="line265" />
          </g>
        </g>
      </g>
      <g
         id="うさぎ">
        <g
           id="g288">
          <path
             d="m 236.41,183.69 c -4.63,1.29 -38.47,11.34 -51.5,44.25 -2.15,5.44 -13.95,35.24 3.75,58.5 11.66,15.33 29.31,18.87 34.75,19.75 -9.79,4.94 -39.72,21.64 -52.25,56.5 -4.4,12.26 -12.69,35.33 -0.25,57 13.22,23 40,27.38 44.25,28 a 54.4,54.4 0 0 0 20,21 c 0.14,0.08 1.57,0.92 3.25,1.75 16.66,8.24 38.66,6.38 40,6.25 27.54,-2.58 47.8,-20 53,-24.75 4.79,13.61 18,21.92 31,20.25 15.77,-2 27.56,-18.3 24.25,-33 a 26.63,26.63 0 0 0 -22.5,-20 67.88,67.88 0 0 0 -14.5,0 c 2.83,-5.83 7,-24 7.5,-40.33 0.33,-10.5 -2.83,-25.67 -13,-41.17 -18.72,-28.53 -54.75,-33.5 -66.25,-32.75 9.75,-7.37 30.63,-25.5 35.25,-49.75 4.86,-25.47 -12.87,-44.2 -16.5,-48.5 23.9,-24.73 37.55,-41.76 47.37,-59.21 7.78,-13.83 16.83,-27.67 19.63,-47.29 2,-14 2.64,-23.92 -5.25,-28.75 C 347.3,64.63 323,84 319.66,86.69 a 90.42,90.42 0 0 0 -8.5,7.75 c 0.52,-3.56 3.2,-23.5 -7.25,-32.25 a 12.8,12.8 0 0 0 -4.25,-2.5 c -9.45,-3.21 -20.37,6.55 -24.5,10.25 -5.21,4.66 -22.54,21.8 -34.75,88.25 -1.98,10.81 -3.25,19.7 -4,25.5 z"
             style="fill:#ffffff;stroke:#777777;stroke-width:8.50394px;stroke-miterlimit:10"
             id="path272" />
          <path
             d="m 340.29,290.44 a 34.84,34.84 0 0 0 -7.87,9.38 32.56,32.56 0 0 0 -4.5,18.63 26.4,26.4 0 0 0 3.88,11.38 c 1.43,2.07 -0.95,-0.41 2,3.5 -0.75,-3 -4.8,-7 -9.75,-10.87 -3.31,-2.58 -9.93,-7.58 -19.62,-8.12 a 32.18,32.18 0 0 0 -15.75,3.25 l 3,4.75 -4.5,0.88 a 28.68,28.68 0 0 0 5.13,12.75 29.16,29.16 0 0 0 11.38,9.25 34.29,34.29 0 0 0 13.31,3.22 37.7,37.7 0 0 0 4.25,0 32,32 0 0 0 -9.12,4.5 33.12,33.12 0 0 0 -10.37,12.38 c -1.82,3.52 -3.75,7.38 -3.37,12.5 a 18.36,18.36 0 0 0 1,4.75 h 5.75 l 1.5,6.13 a 33.89,33.89 0 0 0 13.25,-3.25 35.1,35.1 0 0 0 14.11,-12.64 c 3.31,-5.17 5.21,-13.55 5.75,-16.87 -0.31,2.91 -0.45,13.19 3.75,21 1.74,3.23 5.25,10.5 13.63,14 a 27.65,27.65 0 0 0 6.88,1.88 l 2.13,-5.75 7.63,-0.25 c 2,-8.38 0.44,-14.11 -0.87,-16.75 -2.37,-4.75 -5.75,-8.37 -8.75,-11.62 -3.43,-3.72 -7,-6.57 -9.12,-8.62 5.24,1.26 13.73,1.55 22.63,-0.5 4.92,-1.13 11,-2.62 15.38,-8 a 19.76,19.76 0 0 0 3,-5.12 l -4.37,-2.75 3.13,-3.12 c -3.55,-2.71 -10.95,-7.43 -20.12,-6.87 -5.41,0.32 -10.3,2.41 -13.75,3.88 a 58.56,58.56 0 0 0 -9.5,5.13 38.93,38.93 0 0 0 -2.75,-42.5 c -1,1.71 -2.71,3.54 -3.75,5.25 -1.77,-1.59 -2.93,-3.23 -4.64,-4.79 z"
             style="fill:#ff9999;stroke:#ff9999;stroke-width:0.992126px;stroke-miterlimit:10"
             id="path274" />
          <g
             id="g286">
            <line
               x1="341.04001"
               y1="340.69"
               x2="342.04001"
               y2="317.44"
               style="fill:none;stroke:#ffffff;stroke-width:4.25197px;stroke-miterlimit:10"
               id="line276" />
            <line
               x1="319.29001"
               y1="334.81"
               x2="341.04001"
               y2="340.44"
               style="fill:none;stroke:#ffffff;stroke-width:4.25197px;stroke-miterlimit:10"
               id="line278" />
            <line
               x1="324.16"
               y1="359.56"
               x2="341.54001"
               y2="339.81"
               style="fill:none;stroke:#ffffff;stroke-width:4.25197px;stroke-miterlimit:10"
               id="line280" />
            <line
               x1="352.66"
               y1="361.31"
               x2="340.91"
               y2="340.06"
               style="fill:none;stroke:#ffffff;stroke-width:4.25197px;stroke-miterlimit:10"
               id="line282" />
            <line
               x1="363.66"
               y1="338.19"
               x2="342.04001"
               y2="340.56"
               style="fill:none;stroke:#ffffff;stroke-width:4.25197px;stroke-miterlimit:10"
               id="line284" />
          </g>
        </g>
      </g>
    </g>
  </g>
  <metadata
     id="metadata4527">
    <rdf:RDF>
      <cc:Work
         rdf:about="">
        <dc:title>sacloud-autoscaler.logo</dc:title>
        <dc:creator>
          <cc:Agent>
            <dc:title>Usacloud Authors</dc:title>
          </cc:Agent>
        </dc:creator>
      </cc:Work>
    </rdf:RDF>
  </metadata>
</svg>
